<svg width="162" height="20" viewBox="0 0 162 20" fill="none" xmlns="http://www.w3.org/2000/svg">
<path d="M72.9001 3.47723C71.5501 3.47723 70.2001 3.82496 68.8501 4.52042L69.1876 3.47723H63.4501L58.0501 19.125H64.1251L65.4751 15.3C66.4876 15.9954 67.5001 15.9954 68.8501 15.9954C71.5501 15.9954 73.5751 14.6045 74.2501 12.5182L75.6001 6.95451C75.9376 6.25906 75.9376 5.91133 75.9376 5.5636C75.9376 4.17269 74.9251 3.47723 72.9001 3.47723ZM69.5251 7.30224L67.8376 12.1704C67.5001 12.8659 67.1626 13.2136 66.8251 13.2136C66.4876 13.2136 66.1501 12.8659 66.1501 12.5182V12.1704L67.8376 7.30224C68.1751 6.60678 68.5126 6.25906 69.1876 6.25906C69.5251 6.25906 69.8626 6.60678 69.8626 6.95451C69.5251 6.95451 69.5251 6.95451 69.5251 7.30224Z" fill="#0085FF"/>
<path d="M58.05 3.47723H51.975C50.625 3.47723 49.6125 3.47723 48.9375 3.82496C47.925 4.17269 47.25 4.86814 46.9125 6.25906L44.55 13.2136C44.55 13.5613 44.2125 13.9091 44.2125 14.6045C44.2125 14.9523 44.2125 15.3 44.55 15.6477C44.8875 15.9954 45.9 16.3432 47.5875 16.3432H53.6625C55.0125 16.3432 56.025 16.3432 56.7 15.9954C57.7125 15.6477 58.05 14.6045 58.725 13.5613L61.0875 6.60678C61.425 6.25906 61.425 5.5636 61.425 5.21587C61.0875 3.82496 60.075 3.47723 58.05 3.47723ZM54.675 6.60678L52.65 12.5182C52.3125 13.2136 51.975 13.5613 51.6375 13.5613C51.3 13.5613 50.9625 13.2136 50.9625 12.8659V12.5182L52.9875 6.60678C53.325 5.91133 53.6625 5.5636 54.3375 5.5636C54.675 5.5636 55.0125 5.91133 55.0125 6.25906C54.675 6.60678 54.675 6.60678 54.675 6.60678Z" fill="#0085FF"/>
<path d="M90.1126 3.47723C89.7751 3.47723 89.1001 3.47723 88.0876 3.47723H82.3501C81 3.47723 79.9875 3.47723 79.3125 3.82496C78.3 4.17269 77.625 4.86814 77.2875 6.25906L76.95 7.30224H83.0251V6.95451C83.3626 6.25906 83.7001 5.91133 84.3751 5.91133C84.7126 5.91133 85.0501 5.91133 85.0501 6.25906C85.0501 6.60678 85.05 6.95451 84.7126 7.30224L78.975 9.04088C77.9625 9.38861 77.2875 9.73634 76.95 10.0841C76.6125 10.4318 75.9375 10.7795 75.6 11.475C75.2625 12.1704 74.925 13.2136 74.925 13.9091C74.925 14.2568 74.925 14.9523 75.2625 15.3C75.6 15.9954 76.6125 16.3432 77.9625 16.3432C79.3125 16.3432 80.6625 15.9954 82.0125 15.6477L81.675 16.3432H87.7501L91.1251 6.60678C91.4626 6.25906 91.4626 5.5636 91.4626 5.21587C91.4626 4.17269 91.1251 3.82496 90.1126 3.47723ZM83.0251 12.5182C82.6876 13.2136 82.3501 13.5613 81.675 13.5613C81.3375 13.5613 81 13.5613 81 13.2136C81 12.8659 81.0001 12.5182 81.3376 12.1704C81.6751 11.475 82.0126 11.1272 83.0251 10.7795L83.7001 10.4318L83.0251 12.5182Z" fill="#0085FF"/>
<path d="M33.75 3.47723L29.3625 15.9954H35.4375L38.475 7.30224C38.8125 6.60678 39.15 6.25906 39.825 6.25906C40.1625 6.25906 40.5 6.25906 40.5 6.60678V6.95451L40.1625 7.9977H45.9V6.95451C46.2375 6.25906 46.2375 5.91133 46.2375 5.5636C46.2375 5.21587 46.2375 4.86814 45.9 4.17269C45.5625 3.82496 44.55 3.47723 43.2 3.47723C42.8625 3.47723 42.1875 3.47723 41.85 3.47723C41.175 3.47723 40.1625 3.82496 39.15 4.17269L39.825 3.47723H33.75Z" fill="#0085FF"/>
<path d="M18.2251 3.47723L15.1876 12.5182C14.8501 12.8659 14.8501 13.5613 14.8501 13.9091C14.8501 14.2568 14.8501 14.9523 15.1876 15.3C15.5251 15.9954 16.5376 16.3432 17.8876 16.3432C18.9001 16.3432 19.5751 16.3432 20.9251 15.9954C21.6001 15.6477 21.9376 15.6477 21.9376 15.6477V15.9954H28.0126L32.0626 3.47723H25.9876L22.9501 12.1704C22.6126 12.8659 22.2751 13.2136 21.9376 13.2136C21.6001 13.2136 21.6001 13.2136 21.2626 12.8659C21.2626 12.8659 21.2626 12.5182 21.2626 12.1704L24.3001 3.47723H18.2251Z" fill="#0085FF"/>
<path d="M0 15.9955H12.825L13.8375 12.1705H9.11251L10.125 9.04093H15.1875L16.5375 5.21592H11.475L12.15 3.47728H16.875L18.225 0H5.4L0 15.9955Z" fill="#0085FF"/>
<path d="M131.287 3.47723C130.95 3.47723 130.275 3.47723 129.262 3.47723H123.525C122.175 3.47723 121.162 3.47723 120.487 3.82496C119.475 4.17269 118.8 4.86814 118.462 6.25906L118.125 7.30224H124.2V6.95451C124.537 6.25906 124.875 5.91133 125.55 5.91133C125.887 5.91133 126.225 5.91133 126.225 6.25906C126.225 6.60678 126.225 6.95451 125.887 7.30224L120.15 9.04088C119.137 9.38861 118.462 9.73634 118.125 10.0841C117.787 10.4318 117.112 10.7795 116.775 11.475C116.437 12.1704 116.1 13.2136 116.1 13.9091C116.1 14.2568 116.1 14.9523 116.437 15.3C116.775 15.9954 117.787 16.3432 119.137 16.3432C120.487 16.3432 121.837 15.9954 123.187 15.6477L122.85 16.3432H128.587L131.962 6.60678C132.3 6.25906 132.3 5.5636 132.3 5.21587C132.637 4.17269 132.3 3.82496 131.287 3.47723ZM124.2 12.5182C123.862 13.2136 123.525 13.5613 122.85 13.5613C122.512 13.5613 122.175 13.5613 122.175 13.2136C122.175 12.8659 122.175 12.5182 122.512 12.1704C122.85 11.475 123.187 11.1272 124.2 10.7795L124.875 10.4318L124.2 12.5182Z" fill="#0085FF"/>
<path d="M140.738 4.17269V3.47723H135L130.613 15.9954H136.688L139.725 7.30224C140.063 6.60678 140.4 6.25906 141.075 6.25906C141.413 6.25906 141.75 6.25906 141.75 6.60678V6.95451L141.413 7.9977H147.15V6.95451C147.488 6.25906 147.488 5.91133 147.488 5.5636C147.488 5.21587 147.488 4.86814 147.15 4.17269C146.813 3.82496 145.8 3.47723 144.45 3.47723C144.113 3.47723 143.438 3.47723 143.1 3.47723C142.425 3.47723 141.75 3.82496 140.738 4.17269Z" fill="#0085FF"/>
<path d="M155.587 6.25906C155.587 6.25906 155.587 6.60678 155.25 6.95451H161.325L162 6.25906C162 5.91133 162 5.21587 162 4.86814C162 3.82496 160.988 3.47723 158.625 3.47723H152.887C151.537 3.47723 150.525 3.47723 149.85 3.82496C148.838 4.17269 148.163 5.21587 147.825 6.25906L147.488 7.30224C147.488 7.64997 147.15 7.9977 147.15 8.34542C147.15 8.69315 147.15 8.69315 147.488 9.04088C147.825 9.38861 148.5 9.73634 149.175 10.0841L152.213 11.1272C152.55 11.1272 152.888 11.475 153.225 11.475V11.8227C153.225 11.8227 153.225 12.1704 152.887 12.5182C152.887 12.8659 152.55 13.2136 152.55 13.2136C152.212 13.2136 152.213 13.2136 151.875 13.2136C151.538 13.2136 151.2 13.2136 151.2 12.8659V12.5182L151.538 11.475H145.463L144.788 13.2136C145.463 13.5613 145.125 13.9091 145.125 14.2568C145.125 14.6045 145.125 14.9523 145.463 15.3C145.8 15.6477 146.812 15.9954 148.5 15.9954H154.575C155.925 15.9954 156.938 15.9954 157.613 15.6477C158.625 15.3 159.3 14.2568 159.637 13.2136L160.312 11.8227C160.312 11.475 160.65 11.1272 160.65 10.4318C160.65 10.4318 160.65 10.0841 160.312 9.73634C159.975 9.38861 159.3 9.04088 157.95 8.69315L155.25 7.64997C154.575 7.30224 154.238 7.30224 153.9 7.30224C153.9 7.30224 153.9 6.95451 153.9 6.60678C153.9 6.25906 154.238 5.91133 154.913 5.91133C155.25 5.91133 155.587 5.91133 155.587 6.25906Z" fill="#0085FF"/>
<path d="M115.425 12.5182L116.438 9.38866H108.675L108 11.1273C107.663 11.8228 107.325 12.1705 106.65 12.1705C106.313 12.1705 105.975 12.1705 105.975 11.8228C105.975 11.475 105.975 11.475 105.975 10.7796L108.338 4.17274C108.675 3.82501 109.013 3.47728 109.688 3.47728C110.025 3.47728 110.363 3.47728 110.363 3.82501C110.363 3.82501 110.363 4.17274 110.363 4.86819L110.025 5.91138H117.788L118.463 3.82501C118.8 3.12955 118.8 2.4341 118.8 2.08637C118.8 1.73864 118.8 1.04318 118.463 1.04318C117.788 0.347728 116.775 0 114.75 0H106.65C104.963 0 103.95 0.347728 102.938 0.695456C101.925 1.39091 101.25 2.4341 100.575 3.82501L97.5375 12.5182C97.5375 12.8659 97.2 13.5614 97.2 13.9091C97.2 15.3 98.55 15.9955 100.913 15.9955H109.013C110.7 15.9955 111.713 15.6478 112.725 15.3C114.075 14.9523 115.088 13.9091 115.425 12.5182Z" fill="#0085FF"/>
</svg>
