<svg width="113" height="57" viewBox="0 0 113 57" fill="none" xmlns="http://www.w3.org/2000/svg">
<path d="M43.4271 1C39.5978 7.27923 33.7054 16.2776 27.5924 24.3946M27.5924 24.3946C19.6899 34.8877 11.4188 43.9078 6.7597 43.6758C-1.50337 43.2645 -0.778406 34.935 8.30903 25.68C12.6988 21.2093 22.4079 13.048 26.1263 16.1679C29.8447 19.2879 24.9212 25.866 21.9947 28.765C21.2507 27.7367 21.3286 25.4229 27.5924 24.3946ZM27.5924 24.3946C29.3416 24.9944 31.2204 27.734 26.1263 34.935C19.0335 44.9613 17.629 43.6758 16.6822 43.6758C16.6822 40.8479 20.0323 34.7293 33.8729 32.8783C51.1737 30.5646 48.3333 22.595 39.812 28.765C32.9949 33.701 31.8071 37.3345 32.0654 38.5342C32.6679 39.3911 37.7249 38.7222 45.3683 33.7862C50.9155 30.2039 48.6601 28.765 45.3683 31.5929C43.6843 33.0396 38.3234 38.9124 41.8778 38.5342C46.3088 38.0627 50.8294 34.1638 53.7559 32.8783C56.6824 31.5929 57.0612 29.5877 54.7888 29.7933C52.5165 29.999 48.9301 35.6869 50.9155 37.2488C52.9009 38.8106 54.7888 37.2488 57.5951 34.935C60.4014 32.6213 61.689 30.5612 63.2383 32.3607C60.7228 35.7028 60.1082 37.2488 62.7937 37.2488C65.4792 37.2488 74.4782 31.5929 77.3462 29.7933C80.1866 27.134 76.8759 27.6091 64.343 44.9613C46.5301 69.6236 58.0807 46.1405 66.5301 39.9634C76.0988 32.9681 79.828 30.3075 81.6438 31.5929C83.4596 32.8783 82.1086 34.1638 78.8034 37.2488C75.4981 40.3338 85.6893 36.9917 91.198 34.935C93.0055 34.4208 96.2075 34.1638 94.5548 37.2488C92.9022 40.3338 102.646 36.9917 107.724 34.935C111.675 33.3348 113.302 35.1921 110.823 37.2488" stroke="black"/>
</svg>
